# xmcd
#
# Track frame offsets:
#	150
#	12565
#	29245
#	43887
#	59122
#	76170
#	91045
#	106515
#	119835
#	135887
#	148105
#
# Disc length: 2175 seconds
#
# Revision: 0
# Processed by: cddbd v1.5.2PL0 Copyright (c) Steve Scherf et al.
# Submitted via: EasyCDDAExtractor 10.0.6.1
#
DISCID=98087d0b
DTITLE=Various Artist - CDX 20 Dec. 1991
DYEAR=1991
DGENRE=Country
TTITLE0=Randy Travis - Better Class Of Losers
TTITLE1=Great Plains - Faster Gun
TTITLE2=Davis Daniel - Fighting Fire With Fire
TTITLE3=George Fox - Here Today, Gone Tomorrow
TTITLE4=John Gorka - Houses In The Field
TTITLE5=Tim Ryan - I Will Love You Anyhow
TTITLE6=Patty Loveless - Jealous
TTITLE7=Suzy Bogguss - Outbound Plane
TTITLE8=Ricky Skaggs - Same Ol' Love
TTITLE9=Mario Martin - Take It To A Honky Tonk
TTITLE10=Desert Rose Band - Twilight Is Gone
EXTD=
EXTT0=
EXTT1=
EXTT2=
EXTT3=
EXTT4=
EXTT5=
EXTT6=
EXTT7=
EXTT8=
EXTT9=
EXTT10=
PLAYORDER=
